<mxfile host="app.diagrams.net" agent="Mozilla/5.0 (Windows NT 10.0; Win64; x64) AppleWebKit/537.36 (KHTML, like Gecko) Chrome/137.0.0.0 Safari/537.36" version="27.1.6">
  <diagram name="第 1 页" id="utytm40gsSKGitnZLHSE">
    <mxGraphModel dx="1426" dy="751" grid="0" gridSize="10" guides="1" tooltips="1" connect="1" arrows="1" fold="1" page="1" pageScale="1" pageWidth="4681" pageHeight="3300" background="#FFFFFF" math="0" shadow="0">
      <root>
        <mxCell id="0" />
        <mxCell id="1" parent="0" />
        <mxCell id="oNC4a-AzlW022Mv1LqLi-2" value="" style="rounded=1;whiteSpace=wrap;html=1;fillColor=light-dark(#f5f5f5, #ededed);strokeWidth=2;shadow=0;sketch=1;curveFitting=1;jiggle=2;glass=0;" vertex="1" parent="1">
          <mxGeometry x="690" y="420" width="190" height="80" as="geometry" />
        </mxCell>
        <mxCell id="oNC4a-AzlW022Mv1LqLi-6" style="edgeStyle=orthogonalEdgeStyle;rounded=1;orthogonalLoop=1;jettySize=auto;html=1;entryX=0;entryY=0.5;entryDx=0;entryDy=0;curved=0;strokeWidth=3;fillColor=#d5e8d4;strokeColor=#82b366;sketch=1;curveFitting=1;jiggle=2;" edge="1" parent="1" source="oNC4a-AzlW022Mv1LqLi-3" target="oNC4a-AzlW022Mv1LqLi-2">
          <mxGeometry relative="1" as="geometry" />
        </mxCell>
        <mxCell id="oNC4a-AzlW022Mv1LqLi-3" value="&lt;font style=&quot;font-size: 20px;&quot;&gt;需求文档&lt;/font&gt;" style="rounded=0;whiteSpace=wrap;html=1;glass=0;sketch=1;curveFitting=1;jiggle=2;fillColor=#d5e8d4;strokeColor=#82b366;fontSize=15;fontFamily=Times New Roman;strokeWidth=3;" vertex="1" parent="1">
          <mxGeometry x="440" y="425.5" width="130" height="69" as="geometry" />
        </mxCell>
        <mxCell id="oNC4a-AzlW022Mv1LqLi-9" style="edgeStyle=orthogonalEdgeStyle;rounded=1;orthogonalLoop=1;jettySize=auto;html=1;fillColor=#fff2cc;strokeColor=#d6b656;exitX=1;exitY=0.5;exitDx=0;exitDy=0;strokeWidth=3;sketch=1;curveFitting=1;jiggle=2;curved=0;" edge="1" parent="1" source="oNC4a-AzlW022Mv1LqLi-2" target="oNC4a-AzlW022Mv1LqLi-8">
          <mxGeometry relative="1" as="geometry" />
        </mxCell>
        <mxCell id="oNC4a-AzlW022Mv1LqLi-5" value="" style="shape=image;verticalLabelPosition=bottom;labelBackgroundColor=default;verticalAlign=top;aspect=fixed;imageAspect=0;image=data:image/png,iVBORw0KGgoAAAANSUhEUgAAAM8AAAA9CAIAAACFuaoaAAAgAElEQVR4Ae2cd1hTydrAAypKERVcFAHXjogoCrggrCDWUEITlSKiqIvKagRBQEHQtWAQBKRJ7yDSYUVAkKIQSEJPQguhBEISQgjhefb5/vo0cz03m1D0Xt3dq3n/gDmTKe/M+Z13Zt6Zc2DTQhH2wF/VA7C/qiJhPcIemBbSJoTgr+sBIW1/XV8LaxLSJmTgr+sBIW1/XV8La/q6tHE4HCaTSaVSBwYGaDQam80W9vj33ANfizYOh8Nms5lMJolEwmAwpaWlLS0to6Ojk5OTHA7ne+7x77ntX4s2BoNBIpEaGhqysrLu3btnZ2fn7+//4sWL5uZmCoXyuUZOCOi3wegXpo3NZo+Pjw8NDbW1tb1+/TotLe3+/fuOjo7q6uoIBMLNze3p06clJSWtra2jo6MsFms2jDgfZeqjzJby27gN30krvhhtYOgcGxvr6empq6vLycmJioq6f/8+Eom0tLRUVlZWV1ffv3+/hYWFu7t7XFwcGo0mk8kTExOCGHE4nKmpKTZXWCzW5OQkm80WTPad3KFvqZlfhrapqanx8fHe3t63b9/m5+cnJSVFRkY+fvzY39//4sWLxsbGGzduVFFR0dLSMjQ0NDc3d3JyunXrVlJS0rt37+h0OoAJWDE2mz35UVhcEdL2zQD339LG4XAmJibIZDIOh3v16lVGRkZkZGRwcPCjR4/u3r3r5eV19uzZQ4cOrVu3bsOGDdu3b9fW1jYwMIDD4dbW1levXg0KCiosLGxpaRkZGYE4A/YMIAfCU1NTQtv2DTD3X9HGZrPBaqCmpiYtLS0iIgJw9uDBgzt37ty8eROJRNrZ2RkYGChxZfPmzRoaGrq6uvv37z948KAR3Mja2vqXX36JjY199+7d8PAwnU6fmJgAxox3JJ2amvoG+lrYhP+cNjabTSKRamtrX7x4ER8f//Tp0+DgYBQKBVDz8fFxd3e/ePGitbW1np6eoqKigoLC+vXr1dTUgHkzNDQ8fPiwkZERAoFwcHDw8PCIiIhAo9FUKhWsEMDUjcVife4CVnhT/7E98J/QxmQyBwcHsVjsy5cvk5OTw8LCHj9+jEKhHj169ODBg7t37/r6+np6eiKRSCcnJ0tLS11dXUDbunXrVFRUNDU19fT0gHk7fPjwkSNH4HC4lZXVhQsXAgMD8/LycDgc8MyBwVRI2z+Wns9V7DNoA0tF4LB9+/ZtQkJCSEhIYGBgQEDAw4cPH3Dlt99+8/Pzu3nzpru7+6+//nrmzBlra+v9+/ev48rmzZtVVVV37969d+/eAwcOHD58GA6HG3PFxMTE1NTUwsLi0qVLwMgNDw8zGAwWiyUcRj/3pv5j038GbSwWi0KhNDY2lpSUpKWlPXv2LDw8PDQ0NCgo6DFXAHn379+/c+fOrVu33N3dXVxczp07d+zYMS2u6Ojo/Pzzz4aGhkePHkUgEFZWVsePHz9x4sTJkydtbGxsbW3t7e3Pnj175coVFAqVn5/f1dVFo9GEtP1j6flcxT6DNgqFgsViX716VVxcXFpaWlVVVc2VN1ypqqqqrKysqKgoKyt7+fJlcXFxQUFBTk5OdnZ2ampqWFhYaGjo06dPIyIioqOj4+LiEhISkpKSkrmSmpqaxpXU1NSUlJTk5OSsrKyysrK2traRkZHJyclPb1V/f399ff3r16+LioqysrISEhLiBASNRtNoNA6Hw2AwWltbQZqMjIzy8vKBgYEZ62KxWFVVVenp6aCw2tpaKBmdTi8rK0tLSxOohz8iPT29qKiovr5+aGgIys4XGBwcxOFw5eXlGRkZ/Pn/fJ2SktLY2EihUPhKmJ6eZrFYfX19aDS6pKQkKSkJrN6Cg4MTEhKKiorevXs3hwLNzc0FBQXx8fF/ro3/KiUlJTc3t6ampre3V1CB2WI+gzYikVhQUJCenl5YWIhGo0kk0tjYGBjpwLwerCInJydZXOH1k4Ep/+TkJK8vg81mg5RsNhs421gsFp1Op1AoBAIBi8U2NDQAD/Bs2kPxLBaLSqUSicTnz5/7+Pi4uLjY2trC4fCffvpJU0DCw8NJJNLU1FR/f39KSoq2trampiYcDvfw8GhqaoLK5A3Q6XRfX9/Dhw+Dwh4+fAj9SiaTXV1dDx48KFAPf8SBAwfs7Ox8fHwKCwv7+vr4bDaDweju7i4oKEChUM7OzocOHeLP/+drAwOD6Ojo9vZ2SBMOhzM5OUmhUJqbm9PT0/39/U+fPq2rq7tly5Y1XPnpp59sbW19fHwKCgp6e3uZTCafDtPT04mJiQ4ODn+uaoarffv2WVpauru7p6WlEQiETzxy8Rm0NTc3R0dHu7u7e7h7oFCogoICDAYzMDDAZDIBYRM8wucnA3M+XtSmp6cBbUwmE3KwMRiMoaEhPB5fXl7+/Pnz9PR0PB7PZDKhDp0t0Nvbm5uba2tru3PnzjVr1sjJycnKyi5btkxyJrl37x6gra2t7eHDh8uXL5eUlFRWVj5z5kxdXd2MVVCpVEdHRyUlJVAeEomEkvX09FhYWCgoKMxU1Z/ipKWlZWVl16xZo6mp6ebmRqPRoEKmp6ffvXvn6OiopaWlpKQkJycnLS39p8wCFwoKCk+ePOGlbXJykkwmx8fHW1lZbdu2TUFBYeXKlVJSUkuWLFnEFUlJSaCAhobG5cuXW1pa6HQ6rw7T09P37t3T1NQUqI0/YunSpStWrFi9erWamtqxY8fKy8tHR0f5ihK8/AzaME2Y4KBgp7NOdrZ2Fy5cuO17OyoqqrCwEIvFAjs3Pj4+MTEB0AHmitcl+3Hn81//p6amJicnmUzm+Pg4k8lkMBhjY2PDw8MEAqGuri4iIuLu3bsoFAqHw81NG4PBqK2tRaFQZmZmioqKS5Ysgc0n/v7+gLbm5mZ/f/9FixbBYDAlJSU7O7uamhrBPpqenn5vOE+ePCkjIwPKvnTpEpSsq6sLDocvX758vmr//bu4uLienl5OTg6JRALl4HC4gICA9evXS0hI/DvdnKEVK1YEBQXx0jY8PBwSEoJAIOTl5UGjQAFLliyRkpISFRWFyhMXF9+2bZurq2thYWF/fz/vbfL19VVRUYFSzhtYvHixoqLi1atXy8rKoD6ZLfCptHE4nEZ0IyoA5XDKwdzc3NLS8vjx4xcuXPD19U1MTKysrMTj8UNDQ3QanTXxwUMGRkZAFl/dwM4B1BgMBp1Op9FoIyMjAwMDPT09aDQ6Ozvbzc3NycnJ09OzoaFhDtrYbHZvb+/t27c1NTVBvyxYsEBcXHz16tUbN25UnUXCw8MHBwc5HM7XoE1OTk6w2m3btm3ZskVJSWn58uXgrq9du/bixYsQ3ElJSQgEAvy0ePFiOTm5TZs2CZbDG6Ojo5OQkNDV1QW6d2RkpKys7Oeff166dKmIiMiiRYuWL1++du1aFRUVHR0dfX39HTt2bN26de3atUuWLBEVFV28ePHq1asvXrxYUlLCOzPmpW3p0qVbtmxRUVHhrVdVVVVZWfnHH39cuXIlYFpMTGz79u2PHz/mu9GCl59KG5vNrq+vfxTwyMHhA20QcA4ODleuXAkICEhPT6+qqiIQCGNjY8DCCQ6m0HgKjr7R6XQqlTpCGRkaGiKTyb29vR0dHS9fvnzw4IGNjc3x48dv3LgxN21jY2OVlZXa2tqQSVi6dKmampqbm1t2dnbLLDI0NAR8eF+DNmdnZ8FqGxsbS0tLHz16ZGZmJi4uDoPBZGVlDQ0NCwoKwC158ODBrl27REREYDDYxo0bL168mJubK1gOb0x7ezuFQmGxWKCEFy9emJqarly5UlRUdOHChXJycmZmZk+ePKmrq2tra2tvb29paamurg4NDVVRUZGUlBQREVm4cOGGDRsuXbrEO57y0qavr//77783NDTw1ovD4SoqKiIiIhwdHeXl5WEw2MKFCxUVFe/cuSOIF1/M/LRBpugDbY8enTp1CoFAmJmZmZubW1hYHDt2zNbW1tnZ2cvLKygoKDMzs6ampru7e2RkhHdgBTO2fxXFmhwfHx8dHQWQ9ff3k0ik3t7erq6uhoaG+Pj4M2fOwOFwCwsLDw+P+vp6JpPJa+p5G4BGo/39/RUVFWEw2KJFixQUFGxsbKKjo6urq8lkMm/KGcNfgzZvb2/ButhsNpVKraur8/f3X7ZsGQwGk5KS2rZtW2ZmJkh848aNH3/8EdC2b9++8vLywcFBwXJmjJmcnAQGHhpAf/jhh0uXLqWlpbW2tk5MTEC5xsfHwZCtr68vJSUlIiIiLi5uYGBQUVEBrVJ5aTMyMsLj8bwsTk9PczgcGo2Gw+Hi4+O1tLTExcVFRUUlJSVv3LgBVTRb4JNoA4sAQJu9vb0pVwBwwMh9YM7G9vz5856enqGhocXFxVgslkwm02g0JpPJu/XJYrEYDMboyGh/fz8grKurq6enp7u7G4/HFxYW+vn5HThwQF9f39zc3MPDA9i22WjLzMw8dOgQuH/Lli0zMTHJysqaramC8X8ZbaDqvr6+6OjoFStWwGAwSUnJrVu3ZmRkgJ+uXbu2Zs0aQBscDu/r66NQKOPj44I6C8aMj4+/efPm9OnTYC4hJSWlra1dUVExNjYmmHhiYoJEIvn5+ampqYFxcPPmzX5+fhgMBiSelzaQjEqlvnv37siRI9LS0qKiotLS0l5eXoLV8cXMT9vU1BTwUwDa7OzsjLkCvP/AzllYWABXrZ2dnZOTk6ura0hIyMuXL/v7+wFwgLmJiQk6jT48NEwikbq6uohcIRAI3d3dRCKxtbU1MDDQ1tZWR0dHT0/PzMzM3d0djUbzPp182oeHh69fv37x4sUwGOz9MZPk5OTPcv/8xbS9ffvW29tbWloaBoOBke7ly5egRb6+vsrKyoC2HTt2oFCovLw83hUAX8N5L+l0el5e3rFjxwBtmpqa/v7+PT09gt4NYJkmJyeBJlJSUjAYbOXKle+9LcXFxZAm0CphRtsGklGp1Ldv3/7000+ioqLi4uL6+voxMTG8Ws0Y/jzaUCiUvb29sbEx2HEy+SimpqbQ2AoWEOfOnfPy8oqMjCwrKwP+mLGxMQqFMkAe6O3tJRKJ+I/S2dkJvGslJSUuLi6GhoZ79uzZu3cvAoG4fv06Go2GpiaCDXj06JGUlNSCBQtgMNiWLVuqq6vnWFIIZv8atFlYWCQJSHx8fGho6IULF7S0tMTExCQkJHbv3n3//n0sFgu0SkxMNDU1BasEWVlZbW1tY2PjU6dOIZHImzdv+vn5+fv7BwYGRkZGpqamlpWVEYlEqDkjIyOhoaEGBgaAtoMHD8bFxQ0PD0MJBAM9PT3h4eFgTFixYsXevXvz8/NBMl7bpqGhERYWFhcXx9ugxMTE8PBwHx8fGxubVatWwWCwZcuWXb169fXr14IV8cV8Bm0NDQ2BgYEQbUZGRsDIweFwIyMjYOpMTEwAi0ePHjUxMTl58uTdu3eLiooGBgYGBwf7+vq6u7oJeELnn6Wjo6O8vBx4MTQ1NbW0tLS1tU1MTNzc3GajjcPhsFis27dvgy4WExPT0NBobm7ma97cl1+Dtk2bNh0VEENDw927d//www9A2w0bNpw+fZp3tlRfX+/n56ekpATWECAZDAYTEREBbi15eXmwujQ2Nr58+XJMTExLSwuDwZienh4cHPTw8NixYwfIZWFhUVRURKVS52j76Ohoenr6qlWrFixYsGzZMk1NzdzcXJCelzZ5eXmBphw9fPjwnj17wFwZTEDV1NQSExN7enrmqBH89Nm0nTp1ysTEBBDGS5sRV0AMUPEIV6ytrX18fLBYLDRu4vF4CDY8Hk8gEFpbW5OTk42Njffu3bt7925NTc09e/YYGRm5urrORhubzX7vKLp+/TroYgUFhePHj+Px+HkbzJvga9C2aNEiCQERFxdfvHgxsMEwGMzKyio9PZ1KpUKD3cTExNu3b5FI5JYtWyDUQEBUVHQBV8TExJYsWSIhISEtLa2qquro6AieLjKZfOHChQ0bNoD058+fx+Pxc0w/pqenp6amysvLt2/fLikpKS4uvm7duvT0dNAzvLQtWLBAoCkSoC0LFy4E1amrq9+6dautrY3XjcLbybzhT6INrBKAbXNwcDAxMQFsAfNmZGQE/yjGxsbAvCEQCDCZO3Xq1O3bt5uamggEApFIJBAIH4fQf/8vKCjw9vbW1NTcxRUAHBwOv3bt2my0gYWYq6sraPMPP/xgamra0dHB27Z5w1+DNqDP3H+VlZXPnTv36tUr3m1ZCoVSXV0dEhJy5cqV48ePAw/ZRq4oKiquWLGC12ErKSm5bdu2Z8+eEYnE4eHh27dva2hogEodHR2xWOy8K4yysrIff/xx0aJFMjIy+/btKywsBN3FS9vcrQC/rlq1ytDQMDw8/FMGlvlpA6+3sFgsiDZTU1NB2o4ePWpkZARODVlZWdnY2Jw+fdrJyeny5csPHz7EYDBEIhGsDAgfhUgkdnR0NDU1BQQEWFpaqqiobN++fefOnerq6rt37z5y5AgSiWxoaJhx3sZmswcHB318fJYuXbpgwQJJSUkdHZ26urq/fd62du1aXQHZu3evlpaWsrLyqlWrwORs48aNN2/eRKPRfI/EyMgIDofLy8t78uSJl5fXJa6cOXPGwsJCT09PVVVVQUEB7JdISUmdO3fu999/p1KpiYmJRkZG4PabmZnl5eXNvY9EpVLT09PB/oe8vPyJEycqKioEaZORkdHU1NTR0eFr0J49e3bt2gX8djAYTEJCwszMDLKOfC3ivYTN5lyAEvH621AolIODg6mpKZicAdsGh8PB0GliYmJlZWVvb3/+/PnLly9fvXr12rVrrq6ujx49ArR1d3d3/VkwGExeXp6Dg8POnTs3b94MgNuxY4e6uvqhQ4euXLkyG21gOIiNjVVXV5eQkBAREVm/fn1CQkJ3dzek+byBr2HbkEgkWUC6u7vr6+ufPn1qbW0NHNEyMjL79++HvLuQqmBDb3x8fGxsbHR0lMKV4eHhgYEBDAaTkpLi7OwM5kxiYmJaWlphYWHj4+Pv/YuOjo6Atl27dt26dauvrw8qUzBQV1fn6ekJ1qRz0HbgwIG6ujoCgcDbIBKJ1NTUVFpaGhMTA1avCxcuXLt27W+//SZYEV8MDBzc4Nsv53AFes0OdEF9fT2gDYFAGBsbG/EIMGk2NjaOjo7Ozs5Xrly5du2am5vbda4EBgZiMBjgVwOwQXO4169fP3z4EA6HKysrb9q0aevWraqqqmpqajt27Dhw4MCvv/5aX18/o20DzcjMzDx48CDkbzMzM8vOzuZr4RyX3d3dQUFBYIRavXo1HA6HHnG+XKOjo0ZGRsDVAoPB5tgnnc27S6PR0Gj0/fv3gbbLly/X0dGB5uZ81QlegvNRTU1NYWFhW7duhcFgixcv/vnnn6Ojo1ksVnt7u4uLC6BNQUHBwsKitLQUctjyljY5OTk8PPzbb7/t3LkTNHzr1q0oFKqlpQUk4x1JZ/SAAE2Ghoben3TU0tKCwWALFixYvXq1n58fb0UzhmEs1ocXNnnPAgFjBt6AAr8C2hoaGlAo1OnTp83MzMDkDKxDzczMrK2tT506BUwaEol0dXW9fv26O1c8PDweP36MxWIh2gBqRCKxpaUlPz///cITDofv2rVLVVVVRUVl27Zt27dvV1NTMzQ0dHFxmZu2169fu7i4vH+wFnJFVlb28uXLb968aW1t7evrGxkZYTAY4wICHT0fHR2NjY0VExODwWDS0tJqampxcXHd3d0UCoVGo42Pj39wRI+OEonE0tJSsBUrKioqKyvr6ekJ9SbfrvyMtIHEQ0NDycnJYGufjzYWiyWg5gwRTU1NgYGBysrKMBhMXFz8yJEjiYmJbDZ7aGjo/v37ioqKYmJikpKSqqqqN2/eLCoqIhAIg4OD4+PjU1NTTCazv7+/oaEhJSXF0NAQoCkhIWFoaFhVVQV5TOalDWr4wMCArq7u59EGHUeDTqpBnLG4AkCcmppCo9GBgYFnz561sLBAIBCmpqbm5ubW1tZ2th88umDoRCKRwKp9OJjk4XGDK0FBQYK0gbMe6enpt27dcnJyQiAQurq6YOcYAPcptA0NDZWUlOzbtw8YDFFR0VWrVunp6Xl4eCQlJdXU1HR2dkJwQwHIyc7hcLKzs4HFAvuGNjY2ERERFRUVzc3NYE1TV1cXHBx88OBBWVlZYFH279/P68n8IrQNDQ1B6s0RiIuLMzAwALsREG1gUvHemDk5OcnJyYmIiCxZsmTDhg0nTpx4/PhxcXFxd3f3xMRET09PVlaWs7OzvLw8eMBgMNiGDRsuX74M3jwCGH1d2oDdAmBNcQV6r5N3kOVwOE1NTUFBQU5OTtbW1tbHrE+ePOng4HD+/PlLFy+BodOVK25ubgA1T09Pb29vHx+fp0+f8s7bgGu3ra2trKwsKSkJhUL5+/u7u7v/8ssvVlZWhoaGGhoaO3fu3L9//6VLl+a2bRMTEwQC4c6dO3v27AEPq5iYmIyMjKqqqp6eHthstRKQrKys0dFRMGGtra01NzdXUFAA2detW6etrX3kyBEzMzMrKytLS0sjIyMtLS05OTlwh6SkpJBIZGVlJfSIfxHaCgsLvb29BTTlj9DV1YU0kZaWdnV1raqqAprg8fiEhAQDAwNZWVlRUVEJCYm1a9dqamoePHjw2LFj9vb2x44d09fX37RpExhAwWr03LlzRUVFvHOVr0sbdKoRvEsHAQfto0PdisFgnjx54uzsbG9vf/r0aTBuXrt2DbDl8VFu3LgBOLt165avr+/du3ejo6MxGAyBQIB2q8BStLi4ODk5OTo6OioqKiwsDIVCeXl5nT9/HoFA6Ovrw+Hweedt09PTDAajqqrK29t7z5498vLyfN5RwBDfX+h82/T0dFdXV1RUlImJyfuZB18ywUsZGRkdHZ2UlBTe/bEvQtvTp08NDAzAzpVgvYIxMjIye/fuTUtLg1YDdDodh8Pdvn37yJEjSkpKkPUSzAu8/6qqqidOnMjOzqZQKLwrxa9OG2TewKAJ4cUXwOFw4eHhSCQSrAOuX78OqPL29r558+atj+Lj4+Pr6+vn53fnzp179+6hUKiEhAQMBoPH4yF/W0tLS21tbVFR0fPnzzMyMtLT09PS0lJTU2NjY0NCQu7cuXPmzBkHBwd3d/fGxkbeJ49PJXDJZrPJZPLvv/9uaWmppKQ0Y//yRvLSRqfT29vbIyMjzc3N573Zenp6MTExvb29vLfnb6Ft3759sbGxfX19kCbgowUEAiE1NdXJyQmM+7yt5g1raGj4+voODg4KfuDsr6ANHNqem7be3t6SkpLHjx+Dbbt79+49/CgPuHL/z/Lw4UMUChUSEpKamorFYsF+aGdnZ3t7OxaLra6uLi0tLeJK8UcBL85kZGRERERERkY+f/68t7cXmtTPiBqInJiYeD9pLS8vj4uL8/f3/+WXX86cOWNjY6Ovr68rIFFRUeDsLrDrNBqto6OjuLg4ICDgypUr78898+aAw+EIBMLS0tLLyysjIwOPx/M5TgcGBjw9PY2NjUGuqKio2fQcGhrKz88/evSorq6usbHx9evXoYPpOTk5Li4uenp6vFXzhsHEALyo5u3tnZmZSSAQ+DSZmpoCLzdUVlaGhYVdv37d1tbWwMBAXV1dVVVVW1v70KFD9vb2d+/ezcjIwGAwM3r/o6KiTpw4AapGIpGCJ46g1o2MjDg7O+vq6u7bt8/KyioxMRH6abbAB+8u71vp0F6KYIaxsbHOzs7S0lLwOlBMTAwYBCMjI8PDw8PCwkJCQp48eRIcHBzEleDg4NDQ0MjIyKysLBwOh+duUnV0dLS0tDQ2Nr558+b169cVFRWVlZVVVVVv3ryp/ii1tbU1NTVoNBo0FXp8BVUSjKHRaEQisby8vKSkJCcn58mTJygBqays5Bs+pqenmUwmmUyura3NyMiAcgQGBsbExCQlJaWlpTU3N8+4+Uij0QoKCiIiIkCuN2/eCGoFYsbGxpqamkJDQ1EoVERERFFRETQOYrHYzMzMwMBAqGq+AK8mLS0t0EJnxromJyeBhyI3NzckJMTPz8/b2zsgICAyMjIvL6+7uxtssM6Yt6qq6tmzZ6D2zMxMMpk8m8OcwWCkpaWhUKigoKDY2Nj6+voZC+SN/EAbtAid98NVYF+hv7//7du3xcXFOTk5WVlZGRkZqampiYmJsbGxz549i4yMjOBKZGRkdHR0fHw8OIYKdq46Ojqam5vRaHR1dXVNTU1dXd37Y1L19fUNDQ2NXMHhcB0dHRQKZcaPbfGqPluY81HAHFTw72z4gnyC6UHMJ+aaLRnQFniXoAKhxLzxsykAxUO5ZusBvrqg1R5U7xwZ+TSZuy5IJT5/7Wzlf/DuAn/b3MMolB98Snd4eJhIJDY0NLx69aqgoODFixeZmZkpKSmJiYlxcXExMTHPnj2LiYmJjY1NSEjIycnB4XBtXGlubm5sbKyvr+eFrKmpCYvFNjc3d3V1DQ4O0mg04SvyUId/S4F/eXcFX5Gau5GAuYGBgdbW1rq6ulevXuXn5z9//jwtLS05OTkhISGeKwkJCYmJie+PzGOx2JaWFiwWC6GGRqMhyNra2ggEQl9f3+jo6NyHF+bWSvjrP7wHYLzvGP8HuoJ3GMHGWX5+fnZ2NhhYk5OToSN4wLa1tLRgMJi3XGloaMBgMDgcrrW1tbOzE3D2idb4P1BSmOUf0gMfduXnHpvnVhQaWAkEQkNDQ3l5OWTkwDcWkpOTc3NzAVhYLLa+vh5YNRwO19nZ2dvbC7aJ5vgG79wKCH/9H+qB+U8cfUpj2Gw2nU7v7+8HA+vLly9zc3OBkUtNTQUfyWprawOTNhwO197eTiQSyWQy+LbDvKuTT9FBmOaf3wNfhjbQTuDvIZPJGAymvLw8Nzc3MzMzIyOjoKAAi8W2t7e3tbUBxxuJRKJSqfO6bf/53SfU8E3utPMAAADrSURBVLN64EvSBvwjTCZzZGSkq6urqakJDKyFhYUYDKajo6Orq4tEIlEoFAaDIejF/iy9hYn/F3vgS9IG2g8cNgwGY3BwsLOz8927dzU1Ne3t7X19feDLukLvxv8iKF9E5y9PG6QW9IEnEokEvGgzbpVA6YWBb74HviJt4F1ZFovF5L4uL1wKfPMwzdvAr0vbvNULE3xXPSCk7bu63X9zY4W0/c034LuqXkjbd3W7/+bGCmn7m2/Ad1W9kLbv6nb/zY0V0vY334Dvqnohbd/V7f6bGyuk7QvcgD/++OP/uPLHH398geK+3SL+H+Ia7W7KE7LnAAAAAElFTkSuQmCC;" vertex="1" parent="1">
          <mxGeometry x="700.1600000000001" y="435" width="169.67" height="50" as="geometry" />
        </mxCell>
        <mxCell id="oNC4a-AzlW022Mv1LqLi-10" style="edgeStyle=orthogonalEdgeStyle;rounded=1;orthogonalLoop=1;jettySize=auto;html=1;exitX=0.5;exitY=0;exitDx=0;exitDy=0;strokeWidth=3;curved=0;sketch=1;curveFitting=1;jiggle=2;fillColor=#fff2cc;strokeColor=#d6b656;" edge="1" parent="1" source="oNC4a-AzlW022Mv1LqLi-8">
          <mxGeometry relative="1" as="geometry">
            <mxPoint x="690" y="460" as="targetPoint" />
            <mxPoint x="1055" y="399.5" as="sourcePoint" />
            <Array as="points">
              <mxPoint x="1055" y="360" />
              <mxPoint x="620" y="360" />
              <mxPoint x="620" y="460" />
            </Array>
          </mxGeometry>
        </mxCell>
        <mxCell id="oNC4a-AzlW022Mv1LqLi-8" value="&lt;font style=&quot;font-size: 20px;&quot;&gt;技术文档&lt;/font&gt;" style="rounded=0;whiteSpace=wrap;html=1;glass=0;sketch=1;curveFitting=1;jiggle=2;fillColor=#fff2cc;strokeColor=#d6b656;fontSize=15;fontFamily=Times New Roman;strokeWidth=3;" vertex="1" parent="1">
          <mxGeometry x="990" y="425.5" width="130" height="69" as="geometry" />
        </mxCell>
        <mxCell id="oNC4a-AzlW022Mv1LqLi-21" style="edgeStyle=orthogonalEdgeStyle;rounded=1;orthogonalLoop=1;jettySize=auto;html=1;exitX=1;exitY=0.5;exitDx=0;exitDy=0;entryX=0;entryY=0.5;entryDx=0;entryDy=0;fillColor=#fff2cc;strokeColor=#d6b656;curved=0;sketch=1;curveFitting=1;jiggle=2;" edge="1" parent="1" source="oNC4a-AzlW022Mv1LqLi-12" target="oNC4a-AzlW022Mv1LqLi-15">
          <mxGeometry relative="1" as="geometry" />
        </mxCell>
        <mxCell id="oNC4a-AzlW022Mv1LqLi-12" value="&lt;font style=&quot;font-size: 20px;&quot;&gt;技术文档&lt;/font&gt;" style="rounded=0;whiteSpace=wrap;html=1;glass=0;sketch=1;curveFitting=1;jiggle=2;fillColor=#fff2cc;strokeColor=#d6b656;fontSize=15;fontFamily=Times New Roman;strokeWidth=3;" vertex="1" parent="1">
          <mxGeometry x="472" y="942" width="150" height="75" as="geometry" />
        </mxCell>
        <mxCell id="oNC4a-AzlW022Mv1LqLi-23" style="edgeStyle=orthogonalEdgeStyle;rounded=1;orthogonalLoop=1;jettySize=auto;html=1;exitX=1;exitY=0.5;exitDx=0;exitDy=0;entryX=0;entryY=0.5;entryDx=0;entryDy=0;curved=0;sketch=1;curveFitting=1;jiggle=2;fillColor=#f8cecc;strokeColor=#b85450;" edge="1" parent="1" source="oNC4a-AzlW022Mv1LqLi-13" target="oNC4a-AzlW022Mv1LqLi-15">
          <mxGeometry relative="1" as="geometry" />
        </mxCell>
        <mxCell id="oNC4a-AzlW022Mv1LqLi-13" value="&lt;span style=&quot;font-size: 20px;&quot;&gt;实现要求&lt;/span&gt;" style="rounded=0;whiteSpace=wrap;html=1;glass=0;sketch=1;curveFitting=1;jiggle=2;fillColor=#f8cecc;strokeColor=#b85450;fontSize=15;fontFamily=Times New Roman;strokeWidth=3;" vertex="1" parent="1">
          <mxGeometry x="472" y="1072" width="150" height="80" as="geometry" />
        </mxCell>
        <mxCell id="oNC4a-AzlW022Mv1LqLi-17" value="" style="group" vertex="1" connectable="0" parent="1">
          <mxGeometry x="752" y="1002" width="190" height="80" as="geometry" />
        </mxCell>
        <mxCell id="oNC4a-AzlW022Mv1LqLi-15" value="" style="rounded=1;whiteSpace=wrap;html=1;fillColor=light-dark(#f5f5f5, #ededed);strokeWidth=2;shadow=0;sketch=1;curveFitting=1;jiggle=2;glass=0;" vertex="1" parent="oNC4a-AzlW022Mv1LqLi-17">
          <mxGeometry width="190" height="80" as="geometry" />
        </mxCell>
        <mxCell id="oNC4a-AzlW022Mv1LqLi-16" value="" style="shape=image;verticalLabelPosition=bottom;labelBackgroundColor=default;verticalAlign=top;aspect=fixed;imageAspect=0;image=data:image/png,iVBORw0KGgoAAAANSUhEUgAAAM8AAAA9CAIAAACFuaoaAAAgAElEQVR4Ae2cd1hTydrAAypKERVcFAHXjogoCrggrCDWUEITlSKiqIvKagRBQEHQtWAQBKRJ7yDSYUVAkKIQSEJPQguhBEISQgjhefb5/vo0cz03m1D0Xt3dq3n/gDmTKe/M+Z13Zt6Zc2DTQhH2wF/VA7C/qiJhPcIemBbSJoTgr+sBIW1/XV8LaxLSJmTgr+sBIW1/XV8La/q6tHE4HCaTSaVSBwYGaDQam80W9vj33ANfizYOh8Nms5lMJolEwmAwpaWlLS0to6Ojk5OTHA7ne+7x77ntX4s2BoNBIpEaGhqysrLu3btnZ2fn7+//4sWL5uZmCoXyuUZOCOi3wegXpo3NZo+Pjw8NDbW1tb1+/TotLe3+/fuOjo7q6uoIBMLNze3p06clJSWtra2jo6MsFms2jDgfZeqjzJby27gN30krvhhtYOgcGxvr6empq6vLycmJioq6f/8+Eom0tLRUVlZWV1ffv3+/hYWFu7t7XFwcGo0mk8kTExOCGHE4nKmpKTZXWCzW5OQkm80WTPad3KFvqZlfhrapqanx8fHe3t63b9/m5+cnJSVFRkY+fvzY39//4sWLxsbGGzduVFFR0dLSMjQ0NDc3d3JyunXrVlJS0rt37+h0OoAJWDE2mz35UVhcEdL2zQD339LG4XAmJibIZDIOh3v16lVGRkZkZGRwcPCjR4/u3r3r5eV19uzZQ4cOrVu3bsOGDdu3b9fW1jYwMIDD4dbW1levXg0KCiosLGxpaRkZGYE4A/YMIAfCU1NTQtv2DTD3X9HGZrPBaqCmpiYtLS0iIgJw9uDBgzt37ty8eROJRNrZ2RkYGChxZfPmzRoaGrq6uvv37z948KAR3Mja2vqXX36JjY199+7d8PAwnU6fmJgAxox3JJ2amvoG+lrYhP+cNjabTSKRamtrX7x4ER8f//Tp0+DgYBQKBVDz8fFxd3e/ePGitbW1np6eoqKigoLC+vXr1dTUgHkzNDQ8fPiwkZERAoFwcHDw8PCIiIhAo9FUKhWsEMDUjcVife4CVnhT/7E98J/QxmQyBwcHsVjsy5cvk5OTw8LCHj9+jEKhHj169ODBg7t37/r6+np6eiKRSCcnJ0tLS11dXUDbunXrVFRUNDU19fT0gHk7fPjwkSNH4HC4lZXVhQsXAgMD8/LycDgc8MyBwVRI2z+Wns9V7DNoA0tF4LB9+/ZtQkJCSEhIYGBgQEDAw4cPH3Dlt99+8/Pzu3nzpru7+6+//nrmzBlra+v9+/ev48rmzZtVVVV37969d+/eAwcOHD58GA6HG3PFxMTE1NTUwsLi0qVLwMgNDw8zGAwWiyUcRj/3pv5j038GbSwWi0KhNDY2lpSUpKWlPXv2LDw8PDQ0NCgo6DFXAHn379+/c+fOrVu33N3dXVxczp07d+zYMS2u6Ojo/Pzzz4aGhkePHkUgEFZWVsePHz9x4sTJkydtbGxsbW3t7e3Pnj175coVFAqVn5/f1dVFo9GEtP1j6flcxT6DNgqFgsViX716VVxcXFpaWlVVVc2VN1ypqqqqrKysqKgoKyt7+fJlcXFxQUFBTk5OdnZ2ampqWFhYaGjo06dPIyIioqOj4+LiEhISkpKSkrmSmpqaxpXU1NSUlJTk5OSsrKyysrK2traRkZHJyclPb1V/f399ff3r16+LioqysrISEhLiBASNRtNoNA6Hw2AwWltbQZqMjIzy8vKBgYEZ62KxWFVVVenp6aCw2tpaKBmdTi8rK0tLSxOohz8iPT29qKiovr5+aGgIys4XGBwcxOFw5eXlGRkZ/Pn/fJ2SktLY2EihUPhKmJ6eZrFYfX19aDS6pKQkKSkJrN6Cg4MTEhKKiorevXs3hwLNzc0FBQXx8fF/ro3/KiUlJTc3t6ampre3V1CB2WI+gzYikVhQUJCenl5YWIhGo0kk0tjYGBjpwLwerCInJydZXOH1k4Ep/+TkJK8vg81mg5RsNhs421gsFp1Op1AoBAIBi8U2NDQAD/Bs2kPxLBaLSqUSicTnz5/7+Pi4uLjY2trC4fCffvpJU0DCw8NJJNLU1FR/f39KSoq2trampiYcDvfw8GhqaoLK5A3Q6XRfX9/Dhw+Dwh4+fAj9SiaTXV1dDx48KFAPf8SBAwfs7Ox8fHwKCwv7+vr4bDaDweju7i4oKEChUM7OzocOHeLP/+drAwOD6Ojo9vZ2SBMOhzM5OUmhUJqbm9PT0/39/U+fPq2rq7tly5Y1XPnpp59sbW19fHwKCgp6e3uZTCafDtPT04mJiQ4ODn+uaoarffv2WVpauru7p6WlEQiETzxy8Rm0NTc3R0dHu7u7e7h7oFCogoICDAYzMDDAZDIBYRM8wucnA3M+XtSmp6cBbUwmE3KwMRiMoaEhPB5fXl7+/Pnz9PR0PB7PZDKhDp0t0Nvbm5uba2tru3PnzjVr1sjJycnKyi5btkxyJrl37x6gra2t7eHDh8uXL5eUlFRWVj5z5kxdXd2MVVCpVEdHRyUlJVAeEomEkvX09FhYWCgoKMxU1Z/ipKWlZWVl16xZo6mp6ebmRqPRoEKmp6ffvXvn6OiopaWlpKQkJycnLS39p8wCFwoKCk+ePOGlbXJykkwmx8fHW1lZbdu2TUFBYeXKlVJSUkuWLFnEFUlJSaCAhobG5cuXW1pa6HQ6rw7T09P37t3T1NQUqI0/YunSpStWrFi9erWamtqxY8fKy8tHR0f5ihK8/AzaME2Y4KBgp7NOdrZ2Fy5cuO17OyoqqrCwEIvFAjs3Pj4+MTEB0AHmitcl+3Hn81//p6amJicnmUzm+Pg4k8lkMBhjY2PDw8MEAqGuri4iIuLu3bsoFAqHw81NG4PBqK2tRaFQZmZmioqKS5Ysgc0n/v7+gLbm5mZ/f/9FixbBYDAlJSU7O7uamhrBPpqenn5vOE+ePCkjIwPKvnTpEpSsq6sLDocvX758vmr//bu4uLienl5OTg6JRALl4HC4gICA9evXS0hI/DvdnKEVK1YEBQXx0jY8PBwSEoJAIOTl5UGjQAFLliyRkpISFRWFyhMXF9+2bZurq2thYWF/fz/vbfL19VVRUYFSzhtYvHixoqLi1atXy8rKoD6ZLfCptHE4nEZ0IyoA5XDKwdzc3NLS8vjx4xcuXPD19U1MTKysrMTj8UNDQ3QanTXxwUMGRkZAFl/dwM4B1BgMBp1Op9FoIyMjAwMDPT09aDQ6Ozvbzc3NycnJ09OzoaFhDtrYbHZvb+/t27c1NTVBvyxYsEBcXHz16tUbN25UnUXCw8MHBwc5HM7XoE1OTk6w2m3btm3ZskVJSWn58uXgrq9du/bixYsQ3ElJSQgEAvy0ePFiOTm5TZs2CZbDG6Ojo5OQkNDV1QW6d2RkpKys7Oeff166dKmIiMiiRYuWL1++du1aFRUVHR0dfX39HTt2bN26de3atUuWLBEVFV28ePHq1asvXrxYUlLCOzPmpW3p0qVbtmxRUVHhrVdVVVVZWfnHH39cuXIlYFpMTGz79u2PHz/mu9GCl59KG5vNrq+vfxTwyMHhA20QcA4ODleuXAkICEhPT6+qqiIQCGNjY8DCCQ6m0HgKjr7R6XQqlTpCGRkaGiKTyb29vR0dHS9fvnzw4IGNjc3x48dv3LgxN21jY2OVlZXa2tqQSVi6dKmampqbm1t2dnbLLDI0NAR8eF+DNmdnZ8FqGxsbS0tLHz16ZGZmJi4uDoPBZGVlDQ0NCwoKwC158ODBrl27REREYDDYxo0bL168mJubK1gOb0x7ezuFQmGxWKCEFy9emJqarly5UlRUdOHChXJycmZmZk+ePKmrq2tra2tvb29paamurg4NDVVRUZGUlBQREVm4cOGGDRsuXbrEO57y0qavr//77783NDTw1ovD4SoqKiIiIhwdHeXl5WEw2MKFCxUVFe/cuSOIF1/M/LRBpugDbY8enTp1CoFAmJmZmZubW1hYHDt2zNbW1tnZ2cvLKygoKDMzs6ampru7e2RkhHdgBTO2fxXFmhwfHx8dHQWQ9ff3k0ik3t7erq6uhoaG+Pj4M2fOwOFwCwsLDw+P+vp6JpPJa+p5G4BGo/39/RUVFWEw2KJFixQUFGxsbKKjo6urq8lkMm/KGcNfgzZvb2/ButhsNpVKraur8/f3X7ZsGQwGk5KS2rZtW2ZmJkh848aNH3/8EdC2b9++8vLywcFBwXJmjJmcnAQGHhpAf/jhh0uXLqWlpbW2tk5MTEC5xsfHwZCtr68vJSUlIiIiLi5uYGBQUVEBrVJ5aTMyMsLj8bwsTk9PczgcGo2Gw+Hi4+O1tLTExcVFRUUlJSVv3LgBVTRb4JNoA4sAQJu9vb0pVwBwwMh9YM7G9vz5856enqGhocXFxVgslkwm02g0JpPJu/XJYrEYDMboyGh/fz8grKurq6enp7u7G4/HFxYW+vn5HThwQF9f39zc3MPDA9i22WjLzMw8dOgQuH/Lli0zMTHJysqaramC8X8ZbaDqvr6+6OjoFStWwGAwSUnJrVu3ZmRkgJ+uXbu2Zs0aQBscDu/r66NQKOPj44I6C8aMj4+/efPm9OnTYC4hJSWlra1dUVExNjYmmHhiYoJEIvn5+ampqYFxcPPmzX5+fhgMBiSelzaQjEqlvnv37siRI9LS0qKiotLS0l5eXoLV8cXMT9vU1BTwUwDa7OzsjLkCvP/AzllYWABXrZ2dnZOTk6ura0hIyMuXL/v7+wFwgLmJiQk6jT48NEwikbq6uohcIRAI3d3dRCKxtbU1MDDQ1tZWR0dHT0/PzMzM3d0djUbzPp182oeHh69fv37x4sUwGOz9MZPk5OTPcv/8xbS9ffvW29tbWloaBoOBke7ly5egRb6+vsrKyoC2HTt2oFCovLw83hUAX8N5L+l0el5e3rFjxwBtmpqa/v7+PT09gt4NYJkmJyeBJlJSUjAYbOXKle+9LcXFxZAm0CphRtsGklGp1Ldv3/7000+ioqLi4uL6+voxMTG8Ws0Y/jzaUCiUvb29sbEx2HEy+SimpqbQ2AoWEOfOnfPy8oqMjCwrKwP+mLGxMQqFMkAe6O3tJRKJ+I/S2dkJvGslJSUuLi6GhoZ79uzZu3cvAoG4fv06Go2GpiaCDXj06JGUlNSCBQtgMNiWLVuqq6vnWFIIZv8atFlYWCQJSHx8fGho6IULF7S0tMTExCQkJHbv3n3//n0sFgu0SkxMNDU1BasEWVlZbW1tY2PjU6dOIZHImzdv+vn5+fv7BwYGRkZGpqamlpWVEYlEqDkjIyOhoaEGBgaAtoMHD8bFxQ0PD0MJBAM9PT3h4eFgTFixYsXevXvz8/NBMl7bpqGhERYWFhcXx9ugxMTE8PBwHx8fGxubVatWwWCwZcuWXb169fXr14IV8cV8Bm0NDQ2BgYEQbUZGRsDIweFwIyMjYOpMTEwAi0ePHjUxMTl58uTdu3eLiooGBgYGBwf7+vq6u7oJeELnn6Wjo6O8vBx4MTQ1NbW0tLS1tU1MTNzc3GajjcPhsFis27dvgy4WExPT0NBobm7ma97cl1+Dtk2bNh0VEENDw927d//www9A2w0bNpw+fZp3tlRfX+/n56ekpATWECAZDAYTEREBbi15eXmwujQ2Nr58+XJMTExLSwuDwZienh4cHPTw8NixYwfIZWFhUVRURKVS52j76Ohoenr6qlWrFixYsGzZMk1NzdzcXJCelzZ5eXmBphw9fPjwnj17wFwZTEDV1NQSExN7enrmqBH89Nm0nTp1ysTEBBDGS5sRV0AMUPEIV6ytrX18fLBYLDRu4vF4CDY8Hk8gEFpbW5OTk42Njffu3bt7925NTc09e/YYGRm5urrORhubzX7vKLp+/TroYgUFhePHj+Px+HkbzJvga9C2aNEiCQERFxdfvHgxsMEwGMzKyio9PZ1KpUKD3cTExNu3b5FI5JYtWyDUQEBUVHQBV8TExJYsWSIhISEtLa2qquro6AieLjKZfOHChQ0bNoD058+fx+Pxc0w/pqenp6amysvLt2/fLikpKS4uvm7duvT0dNAzvLQtWLBAoCkSoC0LFy4E1amrq9+6dautrY3XjcLbybzhT6INrBKAbXNwcDAxMQFsAfNmZGQE/yjGxsbAvCEQCDCZO3Xq1O3bt5uamggEApFIJBAIH4fQf/8vKCjw9vbW1NTcxRUAHBwOv3bt2my0gYWYq6sraPMPP/xgamra0dHB27Z5w1+DNqDP3H+VlZXPnTv36tUr3m1ZCoVSXV0dEhJy5cqV48ePAw/ZRq4oKiquWLGC12ErKSm5bdu2Z8+eEYnE4eHh27dva2hogEodHR2xWOy8K4yysrIff/xx0aJFMjIy+/btKywsBN3FS9vcrQC/rlq1ytDQMDw8/FMGlvlpA6+3sFgsiDZTU1NB2o4ePWpkZARODVlZWdnY2Jw+fdrJyeny5csPHz7EYDBEIhGsDAgfhUgkdnR0NDU1BQQEWFpaqqiobN++fefOnerq6rt37z5y5AgSiWxoaJhx3sZmswcHB318fJYuXbpgwQJJSUkdHZ26urq/fd62du1aXQHZu3evlpaWsrLyqlWrwORs48aNN2/eRKPRfI/EyMgIDofLy8t78uSJl5fXJa6cOXPGwsJCT09PVVVVQUEB7JdISUmdO3fu999/p1KpiYmJRkZG4PabmZnl5eXNvY9EpVLT09PB/oe8vPyJEycqKioEaZORkdHU1NTR0eFr0J49e3bt2gX8djAYTEJCwszMDLKOfC3ivYTN5lyAEvH621AolIODg6mpKZicAdsGh8PB0GliYmJlZWVvb3/+/PnLly9fvXr12rVrrq6ujx49ArR1d3d3/VkwGExeXp6Dg8POnTs3b94MgNuxY4e6uvqhQ4euXLkyG21gOIiNjVVXV5eQkBAREVm/fn1CQkJ3dzek+byBr2HbkEgkWUC6u7vr6+ufPn1qbW0NHNEyMjL79++HvLuQqmBDb3x8fGxsbHR0lMKV4eHhgYEBDAaTkpLi7OwM5kxiYmJaWlphYWHj4+Pv/YuOjo6Atl27dt26dauvrw8qUzBQV1fn6ekJ1qRz0HbgwIG6ujoCgcDbIBKJ1NTUVFpaGhMTA1avCxcuXLt27W+//SZYEV8MDBzc4Nsv53AFes0OdEF9fT2gDYFAGBsbG/EIMGk2NjaOjo7Ozs5Xrly5du2am5vbda4EBgZiMBjgVwOwQXO4169fP3z4EA6HKysrb9q0aevWraqqqmpqajt27Dhw4MCvv/5aX18/o20DzcjMzDx48CDkbzMzM8vOzuZr4RyX3d3dQUFBYIRavXo1HA6HHnG+XKOjo0ZGRsDVAoPB5tgnnc27S6PR0Gj0/fv3gbbLly/X0dGB5uZ81QlegvNRTU1NYWFhW7duhcFgixcv/vnnn6Ojo1ksVnt7u4uLC6BNQUHBwsKitLQUctjyljY5OTk8PPzbb7/t3LkTNHzr1q0oFKqlpQUk4x1JZ/SAAE2Ghoben3TU0tKCwWALFixYvXq1n58fb0UzhmEs1ocXNnnPAgFjBt6AAr8C2hoaGlAo1OnTp83MzMDkDKxDzczMrK2tT506BUwaEol0dXW9fv26O1c8PDweP36MxWIh2gBqRCKxpaUlPz///cITDofv2rVLVVVVRUVl27Zt27dvV1NTMzQ0dHFxmZu2169fu7i4vH+wFnJFVlb28uXLb968aW1t7evrGxkZYTAY4wICHT0fHR2NjY0VExODwWDS0tJqampxcXHd3d0UCoVGo42Pj39wRI+OEonE0tJSsBUrKioqKyvr6ekJ9SbfrvyMtIHEQ0NDycnJYGufjzYWiyWg5gwRTU1NgYGBysrKMBhMXFz8yJEjiYmJbDZ7aGjo/v37ioqKYmJikpKSqqqqN2/eLCoqIhAIg4OD4+PjU1NTTCazv7+/oaEhJSXF0NAQoCkhIWFoaFhVVQV5TOalDWr4wMCArq7u59EGHUeDTqpBnLG4AkCcmppCo9GBgYFnz561sLBAIBCmpqbm5ubW1tZ2th88umDoRCKRwKp9OJjk4XGDK0FBQYK0gbMe6enpt27dcnJyQiAQurq6YOcYAPcptA0NDZWUlOzbtw8YDFFR0VWrVunp6Xl4eCQlJdXU1HR2dkJwQwHIyc7hcLKzs4HFAvuGNjY2ERERFRUVzc3NYE1TV1cXHBx88OBBWVlZYFH279/P68n8IrQNDQ1B6s0RiIuLMzAwALsREG1gUvHemDk5OcnJyYmIiCxZsmTDhg0nTpx4/PhxcXFxd3f3xMRET09PVlaWs7OzvLw8eMBgMNiGDRsuX74M3jwCGH1d2oDdAmBNcQV6r5N3kOVwOE1NTUFBQU5OTtbW1tbHrE+ePOng4HD+/PlLFy+BodOVK25ubgA1T09Pb29vHx+fp0+f8s7bgGu3ra2trKwsKSkJhUL5+/u7u7v/8ssvVlZWhoaGGhoaO3fu3L9//6VLl+a2bRMTEwQC4c6dO3v27AEPq5iYmIyMjKqqqp6eHthstRKQrKys0dFRMGGtra01NzdXUFAA2detW6etrX3kyBEzMzMrKytLS0sjIyMtLS05OTlwh6SkpJBIZGVlJfSIfxHaCgsLvb29BTTlj9DV1YU0kZaWdnV1raqqAprg8fiEhAQDAwNZWVlRUVEJCYm1a9dqamoePHjw2LFj9vb2x44d09fX37RpExhAwWr03LlzRUVFvHOVr0sbdKoRvEsHAQfto0PdisFgnjx54uzsbG9vf/r0aTBuXrt2DbDl8VFu3LgBOLt165avr+/du3ejo6MxGAyBQIB2q8BStLi4ODk5OTo6OioqKiwsDIVCeXl5nT9/HoFA6Ovrw+Hweedt09PTDAajqqrK29t7z5498vLyfN5RwBDfX+h82/T0dFdXV1RUlImJyfuZB18ywUsZGRkdHZ2UlBTe/bEvQtvTp08NDAzAzpVgvYIxMjIye/fuTUtLg1YDdDodh8Pdvn37yJEjSkpKkPUSzAu8/6qqqidOnMjOzqZQKLwrxa9OG2TewKAJ4cUXwOFw4eHhSCQSrAOuX78OqPL29r558+atj+Lj4+Pr6+vn53fnzp179+6hUKiEhAQMBoPH4yF/W0tLS21tbVFR0fPnzzMyMtLT09PS0lJTU2NjY0NCQu7cuXPmzBkHBwd3d/fGxkbeJ49PJXDJZrPJZPLvv/9uaWmppKQ0Y//yRvLSRqfT29vbIyMjzc3N573Zenp6MTExvb29vLfnb6Ft3759sbGxfX19kCbgowUEAiE1NdXJyQmM+7yt5g1raGj4+voODg4KfuDsr6ANHNqem7be3t6SkpLHjx+Dbbt79+49/CgPuHL/z/Lw4UMUChUSEpKamorFYsF+aGdnZ3t7OxaLra6uLi0tLeJK8UcBL85kZGRERERERkY+f/68t7cXmtTPiBqInJiYeD9pLS8vj4uL8/f3/+WXX86cOWNjY6Ovr68rIFFRUeDsLrDrNBqto6OjuLg4ICDgypUr78898+aAw+EIBMLS0tLLyysjIwOPx/M5TgcGBjw9PY2NjUGuqKio2fQcGhrKz88/evSorq6usbHx9evXoYPpOTk5Li4uenp6vFXzhsHEALyo5u3tnZmZSSAQ+DSZmpoCLzdUVlaGhYVdv37d1tbWwMBAXV1dVVVVW1v70KFD9vb2d+/ezcjIwGAwM3r/o6KiTpw4AapGIpGCJ46g1o2MjDg7O+vq6u7bt8/KyioxMRH6abbAB+8u71vp0F6KYIaxsbHOzs7S0lLwOlBMTAwYBCMjI8PDw8PCwkJCQp48eRIcHBzEleDg4NDQ0MjIyKysLBwOh+duUnV0dLS0tDQ2Nr558+b169cVFRWVlZVVVVVv3ryp/ii1tbU1NTVoNBo0FXp8BVUSjKHRaEQisby8vKSkJCcn58mTJygBqays5Bs+pqenmUwmmUyura3NyMiAcgQGBsbExCQlJaWlpTU3N8+4+Uij0QoKCiIiIkCuN2/eCGoFYsbGxpqamkJDQ1EoVERERFFRETQOYrHYzMzMwMBAqGq+AK8mLS0t0EJnxromJyeBhyI3NzckJMTPz8/b2zsgICAyMjIvL6+7uxtssM6Yt6qq6tmzZ6D2zMxMMpk8m8OcwWCkpaWhUKigoKDY2Nj6+voZC+SN/EAbtAid98NVYF+hv7//7du3xcXFOTk5WVlZGRkZqampiYmJsbGxz549i4yMjOBKZGRkdHR0fHw8OIYKdq46Ojqam5vRaHR1dXVNTU1dXd37Y1L19fUNDQ2NXMHhcB0dHRQKZcaPbfGqPluY81HAHFTw72z4gnyC6UHMJ+aaLRnQFniXoAKhxLzxsykAxUO5ZusBvrqg1R5U7xwZ+TSZuy5IJT5/7Wzlf/DuAn/b3MMolB98Snd4eJhIJDY0NLx69aqgoODFixeZmZkpKSmJiYlxcXExMTHPnj2LiYmJjY1NSEjIycnB4XBtXGlubm5sbKyvr+eFrKmpCYvFNjc3d3V1DQ4O0mg04SvyUId/S4F/eXcFX5Gau5GAuYGBgdbW1rq6ulevXuXn5z9//jwtLS05OTkhISGeKwkJCYmJie+PzGOx2JaWFiwWC6GGRqMhyNra2ggEQl9f3+jo6NyHF+bWSvjrP7wHYLzvGP8HuoJ3GMHGWX5+fnZ2NhhYk5OToSN4wLa1tLRgMJi3XGloaMBgMDgcrrW1tbOzE3D2idb4P1BSmOUf0gMfduXnHpvnVhQaWAkEQkNDQ3l5OWTkwDcWkpOTc3NzAVhYLLa+vh5YNRwO19nZ2dvbC7aJ5vgG79wKCH/9H+qB+U8cfUpj2Gw2nU7v7+8HA+vLly9zc3OBkUtNTQUfyWprawOTNhwO197eTiQSyWQy+LbDvKuTT9FBmOaf3wNfhjbQTuDvIZPJGAymvLw8Nzc3MzMzIyOjoKAAi8W2t7e3tbUBxxuJRKJSqfO6bf/53SfU8E3utPMAAADrSURBVLN64EvSBvwjTCZzZGSkq6urqakJDKyFhYUYDKajo6Orq4tEIlEoFAaDIejF/iy9hYn/F3vgS9IG2g8cNgwGY3BwsLOz8927dzU1Ne3t7X19feDLukLvxv8iKF9E5y9PG6QW9IEnEokEvGgzbpVA6YWBb74HviJt4F1ZFovF5L4uL1wKfPMwzdvAr0vbvNULE3xXPSCk7bu63X9zY4W0/c034LuqXkjbd3W7/+bGCmn7m2/Ad1W9kLbv6nb/zY0V0vY334Dvqnohbd/V7f6bGyuk7QvcgD/++OP/uPLHH398geK+3SL+H+Ia7W7KE7LnAAAAAElFTkSuQmCC;" vertex="1" parent="oNC4a-AzlW022Mv1LqLi-17">
          <mxGeometry x="10.160000000000082" y="15" width="169.67" height="50" as="geometry" />
        </mxCell>
        <mxCell id="oNC4a-AzlW022Mv1LqLi-18" value="" style="group" vertex="1" connectable="0" parent="1">
          <mxGeometry x="1460" y="720" width="190" height="80" as="geometry" />
        </mxCell>
        <mxCell id="oNC4a-AzlW022Mv1LqLi-19" value="" style="rounded=1;whiteSpace=wrap;html=1;fillColor=light-dark(#f5f5f5, #ededed);strokeWidth=2;shadow=0;sketch=1;curveFitting=1;jiggle=2;glass=0;" vertex="1" parent="oNC4a-AzlW022Mv1LqLi-18">
          <mxGeometry width="190" height="80" as="geometry" />
        </mxCell>
        <mxCell id="oNC4a-AzlW022Mv1LqLi-20" value="" style="shape=image;verticalLabelPosition=bottom;labelBackgroundColor=default;verticalAlign=top;aspect=fixed;imageAspect=0;image=data:image/png,iVBORw0KGgoAAAANSUhEUgAAAM8AAAA9CAIAAACFuaoaAAAgAElEQVR4Ae2cd1hTydrAAypKERVcFAHXjogoCrggrCDWUEITlSKiqIvKagRBQEHQtWAQBKRJ7yDSYUVAkKIQSEJPQguhBEISQgjhefb5/vo0cz03m1D0Xt3dq3n/gDmTKe/M+Z13Zt6Zc2DTQhH2wF/VA7C/qiJhPcIemBbSJoTgr+sBIW1/XV8LaxLSJmTgr+sBIW1/XV8La/q6tHE4HCaTSaVSBwYGaDQam80W9vj33ANfizYOh8Nms5lMJolEwmAwpaWlLS0to6Ojk5OTHA7ne+7x77ntX4s2BoNBIpEaGhqysrLu3btnZ2fn7+//4sWL5uZmCoXyuUZOCOi3wegXpo3NZo+Pjw8NDbW1tb1+/TotLe3+/fuOjo7q6uoIBMLNze3p06clJSWtra2jo6MsFms2jDgfZeqjzJby27gN30krvhhtYOgcGxvr6empq6vLycmJioq6f/8+Eom0tLRUVlZWV1ffv3+/hYWFu7t7XFwcGo0mk8kTExOCGHE4nKmpKTZXWCzW5OQkm80WTPad3KFvqZlfhrapqanx8fHe3t63b9/m5+cnJSVFRkY+fvzY39//4sWLxsbGGzduVFFR0dLSMjQ0NDc3d3JyunXrVlJS0rt37+h0OoAJWDE2mz35UVhcEdL2zQD339LG4XAmJibIZDIOh3v16lVGRkZkZGRwcPCjR4/u3r3r5eV19uzZQ4cOrVu3bsOGDdu3b9fW1jYwMIDD4dbW1levXg0KCiosLGxpaRkZGYE4A/YMIAfCU1NTQtv2DTD3X9HGZrPBaqCmpiYtLS0iIgJw9uDBgzt37ty8eROJRNrZ2RkYGChxZfPmzRoaGrq6uvv37z948KAR3Mja2vqXX36JjY199+7d8PAwnU6fmJgAxox3JJ2amvoG+lrYhP+cNjabTSKRamtrX7x4ER8f//Tp0+DgYBQKBVDz8fFxd3e/ePGitbW1np6eoqKigoLC+vXr1dTUgHkzNDQ8fPiwkZERAoFwcHDw8PCIiIhAo9FUKhWsEMDUjcVife4CVnhT/7E98J/QxmQyBwcHsVjsy5cvk5OTw8LCHj9+jEKhHj169ODBg7t37/r6+np6eiKRSCcnJ0tLS11dXUDbunXrVFRUNDU19fT0gHk7fPjwkSNH4HC4lZXVhQsXAgMD8/LycDgc8MyBwVRI2z+Wns9V7DNoA0tF4LB9+/ZtQkJCSEhIYGBgQEDAw4cPH3Dlt99+8/Pzu3nzpru7+6+//nrmzBlra+v9+/ev48rmzZtVVVV37969d+/eAwcOHD58GA6HG3PFxMTE1NTUwsLi0qVLwMgNDw8zGAwWiyUcRj/3pv5j038GbSwWi0KhNDY2lpSUpKWlPXv2LDw8PDQ0NCgo6DFXAHn379+/c+fOrVu33N3dXVxczp07d+zYMS2u6Ojo/Pzzz4aGhkePHkUgEFZWVsePHz9x4sTJkydtbGxsbW3t7e3Pnj175coVFAqVn5/f1dVFo9GEtP1j6flcxT6DNgqFgsViX716VVxcXFpaWlVVVc2VN1ypqqqqrKysqKgoKyt7+fJlcXFxQUFBTk5OdnZ2ampqWFhYaGjo06dPIyIioqOj4+LiEhISkpKSkrmSmpqaxpXU1NSUlJTk5OSsrKyysrK2traRkZHJyclPb1V/f399ff3r16+LioqysrISEhLiBASNRtNoNA6Hw2AwWltbQZqMjIzy8vKBgYEZ62KxWFVVVenp6aCw2tpaKBmdTi8rK0tLSxOohz8iPT29qKiovr5+aGgIys4XGBwcxOFw5eXlGRkZ/Pn/fJ2SktLY2EihUPhKmJ6eZrFYfX19aDS6pKQkKSkJrN6Cg4MTEhKKiorevXs3hwLNzc0FBQXx8fF/ro3/KiUlJTc3t6ampre3V1CB2WI+gzYikVhQUJCenl5YWIhGo0kk0tjYGBjpwLwerCInJydZXOH1k4Ep/+TkJK8vg81mg5RsNhs421gsFp1Op1AoBAIBi8U2NDQAD/Bs2kPxLBaLSqUSicTnz5/7+Pi4uLjY2trC4fCffvpJU0DCw8NJJNLU1FR/f39KSoq2trampiYcDvfw8GhqaoLK5A3Q6XRfX9/Dhw+Dwh4+fAj9SiaTXV1dDx48KFAPf8SBAwfs7Ox8fHwKCwv7+vr4bDaDweju7i4oKEChUM7OzocOHeLP/+drAwOD6Ojo9vZ2SBMOhzM5OUmhUJqbm9PT0/39/U+fPq2rq7tly5Y1XPnpp59sbW19fHwKCgp6e3uZTCafDtPT04mJiQ4ODn+uaoarffv2WVpauru7p6WlEQiETzxy8Rm0NTc3R0dHu7u7e7h7oFCogoICDAYzMDDAZDIBYRM8wucnA3M+XtSmp6cBbUwmE3KwMRiMoaEhPB5fXl7+/Pnz9PR0PB7PZDKhDp0t0Nvbm5uba2tru3PnzjVr1sjJycnKyi5btkxyJrl37x6gra2t7eHDh8uXL5eUlFRWVj5z5kxdXd2MVVCpVEdHRyUlJVAeEomEkvX09FhYWCgoKMxU1Z/ipKWlZWVl16xZo6mp6ebmRqPRoEKmp6ffvXvn6OiopaWlpKQkJycnLS39p8wCFwoKCk+ePOGlbXJykkwmx8fHW1lZbdu2TUFBYeXKlVJSUkuWLFnEFUlJSaCAhobG5cuXW1pa6HQ6rw7T09P37t3T1NQUqI0/YunSpStWrFi9erWamtqxY8fKy8tHR0f5ihK8/AzaME2Y4KBgp7NOdrZ2Fy5cuO17OyoqqrCwEIvFAjs3Pj4+MTEB0AHmitcl+3Hn81//p6amJicnmUzm+Pg4k8lkMBhjY2PDw8MEAqGuri4iIuLu3bsoFAqHw81NG4PBqK2tRaFQZmZmioqKS5Ysgc0n/v7+gLbm5mZ/f/9FixbBYDAlJSU7O7uamhrBPpqenn5vOE+ePCkjIwPKvnTpEpSsq6sLDocvX758vmr//bu4uLienl5OTg6JRALl4HC4gICA9evXS0hI/DvdnKEVK1YEBQXx0jY8PBwSEoJAIOTl5UGjQAFLliyRkpISFRWFyhMXF9+2bZurq2thYWF/fz/vbfL19VVRUYFSzhtYvHixoqLi1atXy8rKoD6ZLfCptHE4nEZ0IyoA5XDKwdzc3NLS8vjx4xcuXPD19U1MTKysrMTj8UNDQ3QanTXxwUMGRkZAFl/dwM4B1BgMBp1Op9FoIyMjAwMDPT09aDQ6Ozvbzc3NycnJ09OzoaFhDtrYbHZvb+/t27c1NTVBvyxYsEBcXHz16tUbN25UnUXCw8MHBwc5HM7XoE1OTk6w2m3btm3ZskVJSWn58uXgrq9du/bixYsQ3ElJSQgEAvy0ePFiOTm5TZs2CZbDG6Ojo5OQkNDV1QW6d2RkpKys7Oeff166dKmIiMiiRYuWL1++du1aFRUVHR0dfX39HTt2bN26de3atUuWLBEVFV28ePHq1asvXrxYUlLCOzPmpW3p0qVbtmxRUVHhrVdVVVVZWfnHH39cuXIlYFpMTGz79u2PHz/mu9GCl59KG5vNrq+vfxTwyMHhA20QcA4ODleuXAkICEhPT6+qqiIQCGNjY8DCCQ6m0HgKjr7R6XQqlTpCGRkaGiKTyb29vR0dHS9fvnzw4IGNjc3x48dv3LgxN21jY2OVlZXa2tqQSVi6dKmampqbm1t2dnbLLDI0NAR8eF+DNmdnZ8FqGxsbS0tLHz16ZGZmJi4uDoPBZGVlDQ0NCwoKwC158ODBrl27REREYDDYxo0bL168mJubK1gOb0x7ezuFQmGxWKCEFy9emJqarly5UlRUdOHChXJycmZmZk+ePKmrq2tra2tvb29paamurg4NDVVRUZGUlBQREVm4cOGGDRsuXbrEO57y0qavr//77783NDTw1ovD4SoqKiIiIhwdHeXl5WEw2MKFCxUVFe/cuSOIF1/M/LRBpugDbY8enTp1CoFAmJmZmZubW1hYHDt2zNbW1tnZ2cvLKygoKDMzs6ampru7e2RkhHdgBTO2fxXFmhwfHx8dHQWQ9ff3k0ik3t7erq6uhoaG+Pj4M2fOwOFwCwsLDw+P+vp6JpPJa+p5G4BGo/39/RUVFWEw2KJFixQUFGxsbKKjo6urq8lkMm/KGcNfgzZvb2/ButhsNpVKraur8/f3X7ZsGQwGk5KS2rZtW2ZmJkh848aNH3/8EdC2b9++8vLywcFBwXJmjJmcnAQGHhpAf/jhh0uXLqWlpbW2tk5MTEC5xsfHwZCtr68vJSUlIiIiLi5uYGBQUVEBrVJ5aTMyMsLj8bwsTk9PczgcGo2Gw+Hi4+O1tLTExcVFRUUlJSVv3LgBVTRb4JNoA4sAQJu9vb0pVwBwwMh9YM7G9vz5856enqGhocXFxVgslkwm02g0JpPJu/XJYrEYDMboyGh/fz8grKurq6enp7u7G4/HFxYW+vn5HThwQF9f39zc3MPDA9i22WjLzMw8dOgQuH/Lli0zMTHJysqaramC8X8ZbaDqvr6+6OjoFStWwGAwSUnJrVu3ZmRkgJ+uXbu2Zs0aQBscDu/r66NQKOPj44I6C8aMj4+/efPm9OnTYC4hJSWlra1dUVExNjYmmHhiYoJEIvn5+ampqYFxcPPmzX5+fhgMBiSelzaQjEqlvnv37siRI9LS0qKiotLS0l5eXoLV8cXMT9vU1BTwUwDa7OzsjLkCvP/AzllYWABXrZ2dnZOTk6ura0hIyMuXL/v7+wFwgLmJiQk6jT48NEwikbq6uohcIRAI3d3dRCKxtbU1MDDQ1tZWR0dHT0/PzMzM3d0djUbzPp182oeHh69fv37x4sUwGOz9MZPk5OTPcv/8xbS9ffvW29tbWloaBoOBke7ly5egRb6+vsrKyoC2HTt2oFCovLw83hUAX8N5L+l0el5e3rFjxwBtmpqa/v7+PT09gt4NYJkmJyeBJlJSUjAYbOXKle+9LcXFxZAm0CphRtsGklGp1Ldv3/7000+ioqLi4uL6+voxMTG8Ws0Y/jzaUCiUvb29sbEx2HEy+SimpqbQ2AoWEOfOnfPy8oqMjCwrKwP+mLGxMQqFMkAe6O3tJRKJ+I/S2dkJvGslJSUuLi6GhoZ79uzZu3cvAoG4fv06Go2GpiaCDXj06JGUlNSCBQtgMNiWLVuqq6vnWFIIZv8atFlYWCQJSHx8fGho6IULF7S0tMTExCQkJHbv3n3//n0sFgu0SkxMNDU1BasEWVlZbW1tY2PjU6dOIZHImzdv+vn5+fv7BwYGRkZGpqamlpWVEYlEqDkjIyOhoaEGBgaAtoMHD8bFxQ0PD0MJBAM9PT3h4eFgTFixYsXevXvz8/NBMl7bpqGhERYWFhcXx9ugxMTE8PBwHx8fGxubVatWwWCwZcuWXb169fXr14IV8cV8Bm0NDQ2BgYEQbUZGRsDIweFwIyMjYOpMTEwAi0ePHjUxMTl58uTdu3eLiooGBgYGBwf7+vq6u7oJeELnn6Wjo6O8vBx4MTQ1NbW0tLS1tU1MTNzc3GajjcPhsFis27dvgy4WExPT0NBobm7ma97cl1+Dtk2bNh0VEENDw927d//www9A2w0bNpw+fZp3tlRfX+/n56ekpATWECAZDAYTEREBbi15eXmwujQ2Nr58+XJMTExLSwuDwZienh4cHPTw8NixYwfIZWFhUVRURKVS52j76Ohoenr6qlWrFixYsGzZMk1NzdzcXJCelzZ5eXmBphw9fPjwnj17wFwZTEDV1NQSExN7enrmqBH89Nm0nTp1ysTEBBDGS5sRV0AMUPEIV6ytrX18fLBYLDRu4vF4CDY8Hk8gEFpbW5OTk42Njffu3bt7925NTc09e/YYGRm5urrORhubzX7vKLp+/TroYgUFhePHj+Px+HkbzJvga9C2aNEiCQERFxdfvHgxsMEwGMzKyio9PZ1KpUKD3cTExNu3b5FI5JYtWyDUQEBUVHQBV8TExJYsWSIhISEtLa2qquro6AieLjKZfOHChQ0bNoD058+fx+Pxc0w/pqenp6amysvLt2/fLikpKS4uvm7duvT0dNAzvLQtWLBAoCkSoC0LFy4E1amrq9+6dautrY3XjcLbybzhT6INrBKAbXNwcDAxMQFsAfNmZGQE/yjGxsbAvCEQCDCZO3Xq1O3bt5uamggEApFIJBAIH4fQf/8vKCjw9vbW1NTcxRUAHBwOv3bt2my0gYWYq6sraPMPP/xgamra0dHB27Z5w1+DNqDP3H+VlZXPnTv36tUr3m1ZCoVSXV0dEhJy5cqV48ePAw/ZRq4oKiquWLGC12ErKSm5bdu2Z8+eEYnE4eHh27dva2hogEodHR2xWOy8K4yysrIff/xx0aJFMjIy+/btKywsBN3FS9vcrQC/rlq1ytDQMDw8/FMGlvlpA6+3sFgsiDZTU1NB2o4ePWpkZARODVlZWdnY2Jw+fdrJyeny5csPHz7EYDBEIhGsDAgfhUgkdnR0NDU1BQQEWFpaqqiobN++fefOnerq6rt37z5y5AgSiWxoaJhx3sZmswcHB318fJYuXbpgwQJJSUkdHZ26urq/fd62du1aXQHZu3evlpaWsrLyqlWrwORs48aNN2/eRKPRfI/EyMgIDofLy8t78uSJl5fXJa6cOXPGwsJCT09PVVVVQUEB7JdISUmdO3fu999/p1KpiYmJRkZG4PabmZnl5eXNvY9EpVLT09PB/oe8vPyJEycqKioEaZORkdHU1NTR0eFr0J49e3bt2gX8djAYTEJCwszMDLKOfC3ivYTN5lyAEvH621AolIODg6mpKZicAdsGh8PB0GliYmJlZWVvb3/+/PnLly9fvXr12rVrrq6ujx49ArR1d3d3/VkwGExeXp6Dg8POnTs3b94MgNuxY4e6uvqhQ4euXLkyG21gOIiNjVVXV5eQkBAREVm/fn1CQkJ3dzek+byBr2HbkEgkWUC6u7vr6+ufPn1qbW0NHNEyMjL79++HvLuQqmBDb3x8fGxsbHR0lMKV4eHhgYEBDAaTkpLi7OwM5kxiYmJaWlphYWHj4+Pv/YuOjo6Atl27dt26dauvrw8qUzBQV1fn6ekJ1qRz0HbgwIG6ujoCgcDbIBKJ1NTUVFpaGhMTA1avCxcuXLt27W+//SZYEV8MDBzc4Nsv53AFes0OdEF9fT2gDYFAGBsbG/EIMGk2NjaOjo7Ozs5Xrly5du2am5vbda4EBgZiMBjgVwOwQXO4169fP3z4EA6HKysrb9q0aevWraqqqmpqajt27Dhw4MCvv/5aX18/o20DzcjMzDx48CDkbzMzM8vOzuZr4RyX3d3dQUFBYIRavXo1HA6HHnG+XKOjo0ZGRsDVAoPB5tgnnc27S6PR0Gj0/fv3gbbLly/X0dGB5uZ81QlegvNRTU1NYWFhW7duhcFgixcv/vnnn6Ojo1ksVnt7u4uLC6BNQUHBwsKitLQUctjyljY5OTk8PPzbb7/t3LkTNHzr1q0oFKqlpQUk4x1JZ/SAAE2Ghoben3TU0tKCwWALFixYvXq1n58fb0UzhmEs1ocXNnnPAgFjBt6AAr8C2hoaGlAo1OnTp83MzMDkDKxDzczMrK2tT506BUwaEol0dXW9fv26O1c8PDweP36MxWIh2gBqRCKxpaUlPz///cITDofv2rVLVVVVRUVl27Zt27dvV1NTMzQ0dHFxmZu2169fu7i4vH+wFnJFVlb28uXLb968aW1t7evrGxkZYTAY4wICHT0fHR2NjY0VExODwWDS0tJqampxcXHd3d0UCoVGo42Pj39wRI+OEonE0tJSsBUrKioqKyvr6ekJ9SbfrvyMtIHEQ0NDycnJYGufjzYWiyWg5gwRTU1NgYGBysrKMBhMXFz8yJEjiYmJbDZ7aGjo/v37ioqKYmJikpKSqqqqN2/eLCoqIhAIg4OD4+PjU1NTTCazv7+/oaEhJSXF0NAQoCkhIWFoaFhVVQV5TOalDWr4wMCArq7u59EGHUeDTqpBnLG4AkCcmppCo9GBgYFnz561sLBAIBCmpqbm5ubW1tZ2th88umDoRCKRwKp9OJjk4XGDK0FBQYK0gbMe6enpt27dcnJyQiAQurq6YOcYAPcptA0NDZWUlOzbtw8YDFFR0VWrVunp6Xl4eCQlJdXU1HR2dkJwQwHIyc7hcLKzs4HFAvuGNjY2ERERFRUVzc3NYE1TV1cXHBx88OBBWVlZYFH279/P68n8IrQNDQ1B6s0RiIuLMzAwALsREG1gUvHemDk5OcnJyYmIiCxZsmTDhg0nTpx4/PhxcXFxd3f3xMRET09PVlaWs7OzvLw8eMBgMNiGDRsuX74M3jwCGH1d2oDdAmBNcQV6r5N3kOVwOE1NTUFBQU5OTtbW1tbHrE+ePOng4HD+/PlLFy+BodOVK25ubgA1T09Pb29vHx+fp0+f8s7bgGu3ra2trKwsKSkJhUL5+/u7u7v/8ssvVlZWhoaGGhoaO3fu3L9//6VLl+a2bRMTEwQC4c6dO3v27AEPq5iYmIyMjKqqqp6eHthstRKQrKys0dFRMGGtra01NzdXUFAA2detW6etrX3kyBEzMzMrKytLS0sjIyMtLS05OTlwh6SkpJBIZGVlJfSIfxHaCgsLvb29BTTlj9DV1YU0kZaWdnV1raqqAprg8fiEhAQDAwNZWVlRUVEJCYm1a9dqamoePHjw2LFj9vb2x44d09fX37RpExhAwWr03LlzRUVFvHOVr0sbdKoRvEsHAQfto0PdisFgnjx54uzsbG9vf/r0aTBuXrt2DbDl8VFu3LgBOLt165avr+/du3ejo6MxGAyBQIB2q8BStLi4ODk5OTo6OioqKiwsDIVCeXl5nT9/HoFA6Ovrw+Hweedt09PTDAajqqrK29t7z5498vLyfN5RwBDfX+h82/T0dFdXV1RUlImJyfuZB18ywUsZGRkdHZ2UlBTe/bEvQtvTp08NDAzAzpVgvYIxMjIye/fuTUtLg1YDdDodh8Pdvn37yJEjSkpKkPUSzAu8/6qqqidOnMjOzqZQKLwrxa9OG2TewKAJ4cUXwOFw4eHhSCQSrAOuX78OqPL29r558+atj+Lj4+Pr6+vn53fnzp179+6hUKiEhAQMBoPH4yF/W0tLS21tbVFR0fPnzzMyMtLT09PS0lJTU2NjY0NCQu7cuXPmzBkHBwd3d/fGxkbeJ49PJXDJZrPJZPLvv/9uaWmppKQ0Y//yRvLSRqfT29vbIyMjzc3N573Zenp6MTExvb29vLfnb6Ft3759sbGxfX19kCbgowUEAiE1NdXJyQmM+7yt5g1raGj4+voODg4KfuDsr6ANHNqem7be3t6SkpLHjx+Dbbt79+49/CgPuHL/z/Lw4UMUChUSEpKamorFYsF+aGdnZ3t7OxaLra6uLi0tLeJK8UcBL85kZGRERERERkY+f/68t7cXmtTPiBqInJiYeD9pLS8vj4uL8/f3/+WXX86cOWNjY6Ovr68rIFFRUeDsLrDrNBqto6OjuLg4ICDgypUr78898+aAw+EIBMLS0tLLyysjIwOPx/M5TgcGBjw9PY2NjUGuqKio2fQcGhrKz88/evSorq6usbHx9evXoYPpOTk5Li4uenp6vFXzhsHEALyo5u3tnZmZSSAQ+DSZmpoCLzdUVlaGhYVdv37d1tbWwMBAXV1dVVVVW1v70KFD9vb2d+/ezcjIwGAwM3r/o6KiTpw4AapGIpGCJ46g1o2MjDg7O+vq6u7bt8/KyioxMRH6abbAB+8u71vp0F6KYIaxsbHOzs7S0lLwOlBMTAwYBCMjI8PDw8PCwkJCQp48eRIcHBzEleDg4NDQ0MjIyKysLBwOh+duUnV0dLS0tDQ2Nr558+b169cVFRWVlZVVVVVv3ryp/ii1tbU1NTVoNBo0FXp8BVUSjKHRaEQisby8vKSkJCcn58mTJygBqays5Bs+pqenmUwmmUyura3NyMiAcgQGBsbExCQlJaWlpTU3N8+4+Uij0QoKCiIiIkCuN2/eCGoFYsbGxpqamkJDQ1EoVERERFFRETQOYrHYzMzMwMBAqGq+AK8mLS0t0EJnxromJyeBhyI3NzckJMTPz8/b2zsgICAyMjIvL6+7uxtssM6Yt6qq6tmzZ6D2zMxMMpk8m8OcwWCkpaWhUKigoKDY2Nj6+voZC+SN/EAbtAid98NVYF+hv7//7du3xcXFOTk5WVlZGRkZqampiYmJsbGxz549i4yMjOBKZGRkdHR0fHw8OIYKdq46Ojqam5vRaHR1dXVNTU1dXd37Y1L19fUNDQ2NXMHhcB0dHRQKZcaPbfGqPluY81HAHFTw72z4gnyC6UHMJ+aaLRnQFniXoAKhxLzxsykAxUO5ZusBvrqg1R5U7xwZ+TSZuy5IJT5/7Wzlf/DuAn/b3MMolB98Snd4eJhIJDY0NLx69aqgoODFixeZmZkpKSmJiYlxcXExMTHPnj2LiYmJjY1NSEjIycnB4XBtXGlubm5sbKyvr+eFrKmpCYvFNjc3d3V1DQ4O0mg04SvyUId/S4F/eXcFX5Gau5GAuYGBgdbW1rq6ulevXuXn5z9//jwtLS05OTkhISGeKwkJCYmJie+PzGOx2JaWFiwWC6GGRqMhyNra2ggEQl9f3+jo6NyHF+bWSvjrP7wHYLzvGP8HuoJ3GMHGWX5+fnZ2NhhYk5OToSN4wLa1tLRgMJi3XGloaMBgMDgcrrW1tbOzE3D2idb4P1BSmOUf0gMfduXnHpvnVhQaWAkEQkNDQ3l5OWTkwDcWkpOTc3NzAVhYLLa+vh5YNRwO19nZ2dvbC7aJ5vgG79wKCH/9H+qB+U8cfUpj2Gw2nU7v7+8HA+vLly9zc3OBkUtNTQUfyWprawOTNhwO197eTiQSyWQy+LbDvKuTT9FBmOaf3wNfhjbQTuDvIZPJGAymvLw8Nzc3MzMzIyOjoKAAi8W2t7e3tbUBxxuJRKJSqfO6bf/53SfU8E3utPMAAADrSURBVLN64EvSBvwjTCZzZGSkq6urqakJDKyFhYUYDKajo6Orq4tEIlEoFAaDIejF/iy9hYn/F3vgS9IG2g8cNgwGY3BwsLOz8927dzU1Ne3t7X19feDLukLvxv8iKF9E5y9PG6QW9IEnEokEvGgzbpVA6YWBb74HviJt4F1ZFovF5L4uL1wKfPMwzdvAr0vbvNULE3xXPSCk7bu63X9zY4W0/c034LuqXkjbd3W7/+bGCmn7m2/Ad1W9kLbv6nb/zY0V0vY334Dvqnohbd/V7f6bGyuk7QvcgD/++OP/uPLHH398geK+3SL+H+Ia7W7KE7LnAAAAAElFTkSuQmCC;" vertex="1" parent="oNC4a-AzlW022Mv1LqLi-18">
          <mxGeometry x="10.160000000000082" y="15" width="169.67" height="50" as="geometry" />
        </mxCell>
        <mxCell id="oNC4a-AzlW022Mv1LqLi-26" value="&lt;font style=&quot;font-size: 21px;&quot; face=&quot;Comic Sans MS&quot;&gt;code&lt;/font&gt;" style="rounded=0;whiteSpace=wrap;html=1;fillColor=#dae8fc;strokeColor=#6c8ebf;sketch=1;curveFitting=1;jiggle=2;" vertex="1" parent="1">
          <mxGeometry x="1062" y="1007" width="130" height="70" as="geometry" />
        </mxCell>
        <mxCell id="oNC4a-AzlW022Mv1LqLi-27" style="edgeStyle=orthogonalEdgeStyle;rounded=1;orthogonalLoop=1;jettySize=auto;html=1;exitX=1;exitY=0.5;exitDx=0;exitDy=0;fillColor=#dae8fc;strokeColor=#6c8ebf;curved=0;sketch=1;curveFitting=1;jiggle=2;" edge="1" parent="1" source="oNC4a-AzlW022Mv1LqLi-15" target="oNC4a-AzlW022Mv1LqLi-26">
          <mxGeometry relative="1" as="geometry" />
        </mxCell>
        <mxCell id="oNC4a-AzlW022Mv1LqLi-29" style="edgeStyle=orthogonalEdgeStyle;rounded=1;orthogonalLoop=1;jettySize=auto;html=1;exitX=0.5;exitY=1;exitDx=0;exitDy=0;fillColor=#ffe6cc;strokeColor=#d79b00;strokeWidth=1;curved=0;sketch=1;curveFitting=1;jiggle=2;" edge="1" parent="1" source="oNC4a-AzlW022Mv1LqLi-28" target="oNC4a-AzlW022Mv1LqLi-15">
          <mxGeometry relative="1" as="geometry" />
        </mxCell>
        <mxCell id="oNC4a-AzlW022Mv1LqLi-28" value="&lt;span style=&quot;font-size: 20px;&quot;&gt;额外要求&lt;/span&gt;" style="rounded=0;whiteSpace=wrap;html=1;glass=0;sketch=1;curveFitting=1;jiggle=2;fillColor=#ffe6cc;strokeColor=#d79b00;fontSize=15;fontFamily=Times New Roman;strokeWidth=3;" vertex="1" parent="1">
          <mxGeometry x="772" y="872" width="150" height="60" as="geometry" />
        </mxCell>
      </root>
    </mxGraphModel>
  </diagram>
</mxfile>
